<svg width="216" height="176" viewBox="0 0 216 176" fill="none" xmlns="http://www.w3.org/2000/svg">
<circle cx="8" cy="8" r="8" fill="#E0E7FF"/>
<circle cx="48" cy="8" r="8" fill="#E0E7FF"/>
<circle cx="88" cy="8" r="8" fill="#E0E7FF"/>
<circle cx="128" cy="8" r="8" fill="#E0E7FF"/>
<circle cx="168" cy="8" r="8" fill="#E0E7FF"/>
<circle cx="208" cy="8" r="8" fill="#E0E7FF"/>
<circle cx="8" cy="40" r="8" fill="#E0E7FF"/>
<circle cx="48" cy="40" r="8" fill="#E0E7FF"/>
<circle cx="88" cy="40" r="8" fill="#E0E7FF"/>
<circle cx="128" cy="40" r="8" fill="#E0E7FF"/>
<circle cx="168" cy="40" r="8" fill="#E0E7FF"/>
<circle cx="208" cy="40" r="8" fill="#E0E7FF"/>
<circle cx="8" cy="72" r="8" fill="#E0E7FF"/>
<circle cx="48" cy="72" r="8" fill="#E0E7FF"/>
<circle cx="88" cy="72" r="8" fill="#E0E7FF"/>
<circle cx="128" cy="72" r="8" fill="#E0E7FF"/>
<circle cx="168" cy="72" r="8" fill="#E0E7FF"/>
<circle cx="208" cy="72" r="8" fill="#E0E7FF"/>
<circle cx="8" cy="104" r="8" fill="#E0E7FF"/>
<circle cx="48" cy="104" r="8" fill="#E0E7FF"/>
<circle cx="88" cy="104" r="8" fill="#E0E7FF"/>
<circle cx="128" cy="104" r="8" fill="#E0E7FF"/>
<circle cx="168" cy="104" r="8" fill="#E0E7FF"/>
<circle cx="208" cy="104" r="8" fill="#E0E7FF"/>
<circle cx="8" cy="136" r="8" fill="#E0E7FF"/>
<circle cx="48" cy="136" r="8" fill="#E0E7FF"/>
<circle cx="88" cy="136" r="8" fill="#E0E7FF"/>
<circle cx="128" cy="136" r="8" fill="#E0E7FF"/>
<circle cx="168" cy="136" r="8" fill="#E0E7FF"/>
<circle cx="208" cy="136" r="8" fill="#E0E7FF"/>
<circle cx="8" cy="168" r="8" fill="#E0E7FF"/>
<circle cx="48" cy="168" r="8" fill="#E0E7FF"/>
<circle cx="88" cy="168" r="8" fill="#E0E7FF"/>
<circle cx="128" cy="168" r="8" fill="#E0E7FF"/>
<circle cx="168" cy="168" r="8" fill="#E0E7FF"/>
<circle cx="208" cy="168" r="8" fill="#E0E7FF"/>
</svg>
