<svg width="65" height="66" viewBox="0 0 65 66" fill="none" xmlns="http://www.w3.org/2000/svg">
  <rect x="0.5" width="38" height="38" rx="14" fill="#E0E7FF" />
  <path fill-rule="evenodd" clip-rule="evenodd" d="M12.5 22.25C12.5 15.687 12.5703 13.5 21.25 13.5C29.9297 13.5 30 15.687 30 22.25C30 28.813 30.0277 31 21.25 31C12.4723 31 12.5 28.813 12.5 22.25Z" stroke="#334155" stroke-width="4" stroke-linecap="round" stroke-linejoin="round" />
  <path fill-rule="evenodd" clip-rule="evenodd" d="M40 22.25C40 15.687 40.0703 13.5 48.75 13.5C57.4297 13.5 57.5 15.687 57.5 22.25C57.5 28.813 57.5277 31 48.75 31C39.9723 31 40 28.813 40 22.25Z" stroke="#6366F1" stroke-width="4" stroke-linecap="round" stroke-linejoin="round" />
  <path fill-rule="evenodd" clip-rule="evenodd" d="M12.5 49.75C12.5 43.187 12.5703 41 21.25 41C29.9297 41 30 43.187 30 49.75C30 56.313 30.0277 58.5 21.25 58.5C12.4723 58.5 12.5 56.313 12.5 49.75Z" stroke="#334155" stroke-width="4" stroke-linecap="round" stroke-linejoin="round" />
  <path fill-rule="evenodd" clip-rule="evenodd" d="M40 49.75C40 43.187 40.0703 41 48.75 41C57.4297 41 57.5 43.187 57.5 49.75C57.5 56.313 57.5277 58.5 48.75 58.5C39.9723 58.5 40 56.313 40 49.75Z" stroke="#334155" stroke-width="4" stroke-linecap="round" stroke-linejoin="round" />
</svg>