<svg width="65" height="63" viewBox="0 0 65 63" fill="none" xmlns="http://www.w3.org/2000/svg">
<rect x="0.5" width="38" height="38" rx="14" fill="#E0E7FF"/>
<path d="M11.5103 41.6925C11.5103 41.6925 11.8653 46.0375 11.9478 47.4075C12.0578 49.245 12.7678 51.2975 13.9528 52.7225C15.6253 54.7425 17.5953 55.455 20.2253 55.46C23.3178 55.465 45.8053 55.465 48.8978 55.46C51.5278 55.455 53.4978 54.7425 55.1703 52.7225C56.3553 51.2975 57.0653 49.245 57.1778 47.4075C57.2578 46.0375 57.6128 41.6925 57.6128 41.6925" stroke="#6366F1" stroke-width="4" stroke-linecap="round" stroke-linejoin="round"/>
<path d="M25.74 16.3237V15.3962C25.74 12.3462 28.21 9.87622 31.26 9.87622H37.715C40.7625 9.87622 43.235 12.3462 43.235 15.3962L43.2375 16.3237" stroke="#334155" stroke-width="4" stroke-linecap="round" stroke-linejoin="round"/>
<path d="M34.4875 44.6954V41.4604" stroke="#334155" stroke-width="4" stroke-linecap="round" stroke-linejoin="round"/>
<path fill-rule="evenodd" clip-rule="evenodd" d="M11.3748 23.9728V32.6403C16.1698 35.8028 21.9148 38.0178 28.2198 38.8953C28.9748 36.1428 31.4573 34.1253 34.4748 34.1253C37.4448 34.1253 39.9773 36.1428 40.6823 38.9203C47.0123 38.0428 52.7798 35.8278 57.5998 32.6403V23.9728C57.5998 19.7378 54.1923 16.3278 49.9573 16.3278H19.0423C14.8073 16.3278 11.3748 19.7378 11.3748 23.9728Z" stroke="#334155" stroke-width="4" stroke-linecap="round" stroke-linejoin="round"/>
</svg>
