<svg width="32" height="32" viewBox="0 0 32 32" fill="none" xmlns="http://www.w3.org/2000/svg">
<path fill-rule="evenodd" clip-rule="evenodd" d="M5.65216 13.8551C5.67137 8.201 10.2705 3.63301 15.9246 3.65216C21.5787 3.67143 26.1467 8.27057 26.1276 13.9247V14.0406C26.058 17.716 24.0058 21.1131 21.4898 23.7682C20.051 25.2623 18.4442 26.5851 16.7014 27.7102C16.2354 28.1133 15.5442 28.1133 15.0782 27.7102C12.4803 26.0192 10.2001 23.8842 8.34202 21.4029C6.68596 19.2392 5.74571 16.613 5.65216 13.8899V13.8551Z" stroke="#334155" stroke-width="2.5" stroke-linecap="round" stroke-linejoin="round"/>
<path d="M15.8898 17.3333C17.702 17.3333 19.171 15.8643 19.171 14.0522C19.171 12.24 17.702 10.771 15.8898 10.771C14.0777 10.771 12.6087 12.24 12.6087 14.0522C12.6087 15.8643 14.0777 17.3333 15.8898 17.3333Z" stroke="#6366F1" stroke-width="2.5" stroke-linecap="round" stroke-linejoin="round"/>
</svg>
