<svg width="64" height="63" viewBox="0 0 64 63" fill="none" xmlns="http://www.w3.org/2000/svg">
<rect x="0.5" width="38" height="38" rx="14" fill="#E0E7FF"/>
<path d="M45.6276 19.4961C45.6276 13.5309 40.7918 8.69504 34.8267 8.69504C31.9542 8.68297 29.1951 9.81554 27.1597 11.8424C25.1242 13.8693 23.98 16.6235 23.98 19.4961" stroke="#6366F1" stroke-width="4" stroke-linecap="round" stroke-linejoin="round"/>
<path fill-rule="evenodd" clip-rule="evenodd" d="M45.2843 56.7501H24.4148C16.7489 56.7501 10.8678 53.9812 12.5383 42.8371L14.4834 27.7341C15.5132 22.1734 19.0601 20.0453 22.1722 20.0453H47.6184C50.7763 20.0453 54.1173 22.3336 55.3072 27.7341L57.2523 42.8371C58.671 52.7226 52.9502 56.7501 45.2843 56.7501Z" stroke="#334155" stroke-width="4" stroke-linecap="round" stroke-linejoin="round"/>
<path d="M42.2408 30.7546H42.1264" stroke="#334155" stroke-width="4" stroke-linecap="round" stroke-linejoin="round"/>
<path d="M27.6642 30.7546H27.5498" stroke="#334155" stroke-width="4" stroke-linecap="round" stroke-linejoin="round"/>
</svg>
