<svg width="51" height="51" viewBox="0 0 51 51" fill="none" xmlns="http://www.w3.org/2000/svg">
<path d="M1.85432 2.17091C1.30197 2.72963 0.906906 3.42427 0.709062 4.18461C0.511218 4.94495 0.517606 5.74404 0.727579 6.50112L12.3485 47.6603C12.5919 48.5253 13.0933 49.2955 13.7858 49.8682C14.4782 50.4409 15.3288 50.7889 16.2241 50.8657C17.1194 50.9425 18.0169 50.7445 18.7968 50.2981C19.5767 49.8517 20.2019 49.1781 20.5891 48.3673L29.4042 29.7208L48.0507 20.9057C48.8076 20.5541 49.4474 19.9923 49.894 19.2872C50.3405 18.5822 50.5749 17.7636 50.5693 16.929V16.5534C50.4981 15.6551 50.1527 14.8004 49.5797 14.1049C49.0067 13.4094 48.2339 12.9068 47.3658 12.6651L6.18454 1.04417C5.42746 0.834194 4.62836 0.827806 3.86802 1.02565C3.10768 1.22349 2.41304 1.61856 1.85432 2.17091V2.17091ZM43.6321 17.1278L27.9682 24.5511L19.3077 15.8685C18.8097 15.3705 18.1342 15.0907 17.4298 15.0907C16.7255 15.0907 16.05 15.3705 15.5519 15.8685C15.0539 16.3666 14.7741 17.0421 14.7741 17.7464C14.7741 18.4508 15.0539 19.1263 15.5519 19.6243L24.2345 28.2848L16.8112 43.9487L6.27291 6.58949L43.6321 17.1278Z" fill="black"/>
</svg>
