<svg width="110" height="40" viewBox="0 0 110 40" fill="none" xmlns="http://www.w3.org/2000/svg">
<rect x="6" width="21.1111" height="20" rx="4" fill="#818CF8"/>
<rect x="1" y="23" width="11" height="11" rx="4" fill="#FDBA74"/>
<path d="M13.0653 16.9851V13.1818H30.9844V16.9851H24.3047V35H19.745V16.9851H13.0653ZM37.0781 35L32.625 18.6364H37.2166L39.7521 29.6307H39.9013L42.5433 18.6364H47.0497L49.7344 29.5668H49.8729L52.3658 18.6364H56.9467L52.5043 35H47.6996L44.8871 24.7088H44.6847L41.8722 35H37.0781ZM59.3677 35V18.6364H63.9061V35H59.3677ZM61.6475 16.527C60.9728 16.527 60.394 16.3033 59.911 15.8558C59.4352 15.4013 59.1973 14.858 59.1973 14.2259C59.1973 13.6009 59.4352 13.0646 59.911 12.6172C60.394 12.1626 60.9728 11.9354 61.6475 11.9354C62.3223 11.9354 62.8975 12.1626 63.3734 12.6172C63.8564 13.0646 64.0978 13.6009 64.0978 14.2259C64.0978 14.858 63.8564 15.4013 63.3734 15.8558C62.8975 16.3033 62.3223 16.527 61.6475 16.527ZM72.0799 13.1818V35H67.5415V13.1818H72.0799ZM80.2537 13.1818V35H75.7154V13.1818H80.2537ZM83.8892 35V18.6364H88.4276V35H83.8892ZM86.169 16.527C85.4943 16.527 84.9155 16.3033 84.4325 15.8558C83.9567 15.4013 83.7188 14.858 83.7188 14.2259C83.7188 13.6009 83.9567 13.0646 84.4325 12.6172C84.9155 12.1626 85.4943 11.9354 86.169 11.9354C86.8438 11.9354 87.419 12.1626 87.8949 12.6172C88.3778 13.0646 88.6193 13.6009 88.6193 14.2259C88.6193 14.858 88.3778 15.4013 87.8949 15.8558C87.419 16.3033 86.8438 16.527 86.169 16.527ZM99.4565 35.3196C97.8017 35.3196 96.3706 34.968 95.1632 34.2649C93.9629 33.5547 93.036 32.5675 92.3826 31.3033C91.7292 30.032 91.4025 28.5582 91.4025 26.8821C91.4025 25.1918 91.7292 23.7145 92.3826 22.4503C93.036 21.179 93.9629 20.1918 95.1632 19.4886C96.3706 18.7784 97.8017 18.4233 99.4565 18.4233C101.111 18.4233 102.539 18.7784 103.739 19.4886C104.947 20.1918 105.877 21.179 106.53 22.4503C107.184 23.7145 107.51 25.1918 107.51 26.8821C107.51 28.5582 107.184 30.032 106.53 31.3033C105.877 32.5675 104.947 33.5547 103.739 34.2649C102.539 34.968 101.111 35.3196 99.4565 35.3196ZM99.4778 31.804C100.231 31.804 100.859 31.5909 101.363 31.1648C101.868 30.7315 102.248 30.142 102.503 29.3963C102.766 28.6506 102.898 27.8018 102.898 26.8501C102.898 25.8984 102.766 25.0497 102.503 24.304C102.248 23.5582 101.868 22.9687 101.363 22.5355C100.859 22.1023 100.231 21.8857 99.4778 21.8857C98.7179 21.8857 98.0787 22.1023 97.5602 22.5355C97.0488 22.9687 96.6618 23.5582 96.399 24.304C96.1433 25.0497 96.0154 25.8984 96.0154 26.8501C96.0154 27.8018 96.1433 28.6506 96.399 29.3963C96.6618 30.142 97.0488 30.7315 97.5602 31.1648C98.0787 31.5909 98.7179 31.804 99.4778 31.804Z" fill="#334155"/>
</svg>
